<mxfile host="app.diagrams.net" modified="2024-05-06T05:40:29.047Z" agent="Mozilla/5.0 (Windows NT 10.0; Win64; x64) AppleWebKit/537.36 (KHTML, like Gecko) Chrome/124.0.0.0 Safari/537.36" etag="NMxVs6gm47u2v9VkOnjv" version="24.3.1" type="device">
  <diagram name="Page-1" id="22d-jKoYUfVfqy4k22of">
    <mxGraphModel dx="1251" dy="675" grid="1" gridSize="10" guides="1" tooltips="1" connect="1" arrows="1" fold="1" page="1" pageScale="1" pageWidth="850" pageHeight="1100" math="0" shadow="0">
      <root>
        <mxCell id="0" />
        <mxCell id="1" parent="0" />
        <mxCell id="UkynQJa6ap6rft7FZe4Q-3" style="rounded=0;orthogonalLoop=1;jettySize=auto;html=1;entryX=0;entryY=0.5;entryDx=0;entryDy=0;" parent="1" target="UkynQJa6ap6rft7FZe4Q-2" edge="1">
          <mxGeometry relative="1" as="geometry">
            <mxPoint x="267.5" y="390" as="sourcePoint" />
          </mxGeometry>
        </mxCell>
        <mxCell id="UkynQJa6ap6rft7FZe4Q-1" value="User" style="shape=umlActor;verticalLabelPosition=bottom;verticalAlign=top;html=1;outlineConnect=0;" parent="1" vertex="1">
          <mxGeometry x="227.5" y="380" width="30" height="60" as="geometry" />
        </mxCell>
        <mxCell id="UkynQJa6ap6rft7FZe4Q-2" value="Upload audio file" style="ellipse;whiteSpace=wrap;html=1;rotation=0;" parent="1" vertex="1">
          <mxGeometry x="335" y="270" width="180" height="80" as="geometry" />
        </mxCell>
        <mxCell id="UkynQJa6ap6rft7FZe4Q-4" style="rounded=0;orthogonalLoop=1;jettySize=auto;html=1;exitX=1;exitY=0.3333333333333333;exitDx=0;exitDy=0;exitPerimeter=0;entryX=0;entryY=0.5;entryDx=0;entryDy=0;" parent="1" target="UkynQJa6ap6rft7FZe4Q-5" edge="1">
          <mxGeometry relative="1" as="geometry">
            <mxPoint x="267.5" y="410" as="sourcePoint" />
          </mxGeometry>
        </mxCell>
        <mxCell id="UkynQJa6ap6rft7FZe4Q-5" value="View audio features&amp;nbsp;&lt;div&gt;from input audio file&lt;/div&gt;&lt;div&gt;or Spotify song&lt;/div&gt;" style="ellipse;whiteSpace=wrap;html=1;rotation=0;" parent="1" vertex="1">
          <mxGeometry x="330" y="450" width="180" height="80" as="geometry" />
        </mxCell>
        <mxCell id="UkynQJa6ap6rft7FZe4Q-8" style="rounded=0;orthogonalLoop=1;jettySize=auto;html=1;entryX=0;entryY=0.5;entryDx=0;entryDy=0;" parent="1" target="UkynQJa6ap6rft7FZe4Q-9" edge="1">
          <mxGeometry relative="1" as="geometry">
            <mxPoint x="267.5" y="370" as="sourcePoint" />
          </mxGeometry>
        </mxCell>
        <mxCell id="UkynQJa6ap6rft7FZe4Q-9" value="Search&amp;nbsp;&lt;div&gt;&lt;span style=&quot;background-color: initial;&quot;&gt;&amp;nbsp;songs on Spotify&lt;/span&gt;&lt;/div&gt;" style="ellipse;whiteSpace=wrap;html=1;rotation=0;" parent="1" vertex="1">
          <mxGeometry x="335" y="180" width="180" height="80" as="geometry" />
        </mxCell>
        <mxCell id="UkynQJa6ap6rft7FZe4Q-10" value="View&amp;nbsp; Predicted Class&amp;nbsp;&lt;div&gt;of the song&lt;/div&gt;" style="ellipse;whiteSpace=wrap;html=1;rotation=0;" parent="1" vertex="1">
          <mxGeometry x="335" y="360" width="180" height="80" as="geometry" />
        </mxCell>
        <mxCell id="UkynQJa6ap6rft7FZe4Q-11" value="" style="endArrow=classic;html=1;rounded=0;entryX=0;entryY=0.5;entryDx=0;entryDy=0;" parent="1" target="UkynQJa6ap6rft7FZe4Q-10" edge="1">
          <mxGeometry width="50" height="50" relative="1" as="geometry">
            <mxPoint x="267.5" y="400" as="sourcePoint" />
            <mxPoint x="337.5" y="400" as="targetPoint" />
          </mxGeometry>
        </mxCell>
        <mxCell id="XngyiHm9hfdd0svkT9Fj-1" value="" style="rounded=0;whiteSpace=wrap;html=1;fillColor=none;rotation=90;" parent="1" vertex="1">
          <mxGeometry x="172.10000000000002" y="228.94" width="470" height="260" as="geometry" />
        </mxCell>
        <mxCell id="XngyiHm9hfdd0svkT9Fj-2" value="&lt;b&gt;&lt;font style=&quot;font-size: 11px;&quot;&gt;WAVEFORM:MUSIC POPULARITY PREDICTOR&lt;/font&gt;&lt;/b&gt;" style="text;html=1;align=center;verticalAlign=middle;resizable=0;points=[];autosize=1;strokeColor=none;fillColor=none;" parent="1" vertex="1">
          <mxGeometry x="272.1" y="150" width="270" height="30" as="geometry" />
        </mxCell>
      </root>
    </mxGraphModel>
  </diagram>
</mxfile>
